<?xml version="1.0" encoding="UTF-8" standalone="no"?>
<!DOCTYPE svg PUBLIC "-//W3C//DTD SVG 1.1//EN" "http://www.w3.org/Graphics/SVG/1.1/DTD/svg11.dtd">
<!-- Generated by Microsoft Visio, SVG Export PCIPal_Logo-lg_Main-blue.svg Page-1 -->
<svg xmlns="http://www.w3.org/2000/svg" xmlns:xlink="http://www.w3.org/1999/xlink" xmlns:ev="http://www.w3.org/2001/xml-events"
		width="6.94444in" height="6.94444in" viewBox="0 0 500 500" xml:space="preserve" color-interpolation-filters="sRGB"
		class="st3">
	<style type="text/css">
	<![CDATA[
		.st1 {fill:#181c35;stroke:none;stroke-linecap:butt;stroke-width:0.75}
		.st2 {fill:#eb671f;stroke:none;stroke-linecap:butt;stroke-width:0.75}
		.st3 {fill:none;fill-rule:evenodd;font-size:12px;overflow:visible;stroke-linecap:square;stroke-miterlimit:3}
	]]>
	</style>

	<g>
		<title>Page-1</title>
		<g id="group1-1" transform="translate(18,-187.688)">
			<title>PCIPal_Logo-lg_Main-blue</title>
			<desc>Created with Sketch.</desc>
			<g id="group2-2">
				<title>PCIPal_Logo-lg_Main-blue</title>
				<g id="group3-3" transform="translate(186.23,-6.39904)">
					<title>Pal</title>
					<g id="shape4-4">
						<title>Fill-1</title>
						<path d="M45.99 461.79 C37.53 458.72 33.07 449.65 36.13 441.26 C39.18 432.86 48.59 428.33 57.05 431.41 C65.5
									 434.49 69.8 444.01 66.74 452.4 C63.69 460.79 54.44 464.87 45.99 461.79 ZM62.07 417.6 C45.96
									 411.74 28.03 420.2 22.21 436.19 L0 497.2 C7.69 500 16.19 496.04 18.98 488.35 L27.17 465.85 C30.66
									 470.13 35.35 473.56 40.96 475.61 C57.08 481.47 74.84 473.46 80.66 457.46 C86.48 441.47 78.19
									 423.47 62.07 417.6 Z" class="st1"/>
					</g>
					<g id="shape5-6" transform="translate(147.565,-20.1623)">
						<title>Fill-3</title>
						<path d="M45.57 416.39 C37.9 413.6 29.42 417.55 26.63 425.22 L0 497.21 C7.67 500 16.15 496.05 18.94 488.38
									 L45.57 416.39 Z" class="st1"/>
					</g>
					<g id="shape6-8" transform="translate(82.9785,-21.8324)">
						<title>Fill-5</title>
						<path d="M50.36 474.31 C47.34 482.71 38.11 486.83 29.64 483.79 C21.17 480.75 16.67 471.69 19.69 463.29 C22.71
									 454.89 32.1 450.32 40.57 453.36 C49.04 456.4 53.37 465.9 50.36 474.31 ZM75.47 448.84 C66.69
									 444.55 60.05 449.1 60.27 449.36 C56.82 445.3 52.01 441.85 45.54 439.53 C29.4 433.74 11.51 442.27
									 5.75 458.28 C0 474.3 8.53 491.82 24.67 497.62 C30.29 499.64 36.09 500 41.51 498.94 C46.06 497.71
									 53.14 495.63 57.74 497.62 L64.29 479.32 C64.39 479.06 64.45 478.8 64.54 478.55 L75.47 448.84
									 Z" class="st1"/>
					</g>
				</g>
				<g id="group7-10">
					<title>PCI</title>
					<g id="shape8-11">
						<title>Fill-7</title>
						<path d="M70.39 453.26 C55.82 453.26 44 441.45 44 426.87 C44 412.3 55.82 400.48 70.39 400.48 C84.96 400.48
									 96.78 412.3 96.78 426.87 C96.78 441.45 84.96 453.26 70.39 453.26 ZM108.31 408.3 C101.44 394.29
									 87.04 384.65 70.39 384.65 C55.56 384.65 42.52 392.31 34.98 403.88 C33.46 405.96 32.2 408.24
									 31.3 410.72 L0 497.28 C7.48 500 17.28 496.37 20 488.89 L25.37 472.63 C25.4 472.67 27.39 466.85
									 27.42 466.89 L34.11 448.48 C41.48 460.82 54.97 469.1 70.39 469.1 C86.3 469.1 100.15 460.29 107.35
									 447.3 C104.59 441.69 103.03 435.39 103.03 428.72 C103.03 421.31 104.95 414.35 108.31 408.3 Z"
								class="st2"/>
					</g>
					<g id="shape9-13" transform="translate(163.826,-29.8701)">
						<title>Fill-9</title>
						<path d="M24.25 431 L0 500 C13.67 497.74 22.77 486.3 26.4 473.57 L46.58 418.27 C35.89 414.66 27.87 420.31
									 24.25 431 Z" class="st2"/>
					</g>
					<g id="shape10-15" transform="translate(107.418,-28.9392)">
						<title>Fill-11</title>
						<path d="M15.95 457.66 C15.95 443.08 27.77 431.27 42.34 431.27 C50.7 431.27 58.14 435.16 62.97 441.22 L68.56
									 424.44 C61.35 418.74 52.25 415.32 42.34 415.32 C18.96 415.32 0 434.28 0 457.66 C0 481.04 18.96
									 500 42.34 500 C45.61 500 48.79 499.62 51.85 498.91 L59.29 477.88 C54.71 481.73 48.8 484.05 42.34
									 484.05 C27.77 484.05 15.95 472.23 15.95 457.66 Z" class="st2"/>
					</g>
				</g>
				<g id="group11-17" transform="translate(369.127,-6.39805)">
					<title>Padlock</title>
					<g id="shape12-18" transform="translate(24.2293,-63.9464)">
						<title>Fill-13</title>
						<path d="M0 479.72 L3.55 470.15 C9.14 455.06 25.96 447.33 41.06 452.92 C56.15 458.51 63.87 475.34 58.28 490.43
									 L54.74 500 C51.09 496.37 47.04 493.21 42.7 490.49 L44.6 485.36 C47.4 477.81 43.54 469.4 35.98
									 466.6 C28.43 463.8 20.03 467.67 17.23 475.22 L15.33 480.35 C10.26 479.58 5.13 479.34 0 479.72
									 Z" class="st2"/>
					</g>
					<g id="shape13-20">
						<title>Fill-16</title>
						<path d="M49.31 453.09 C48.52 455.21 46.81 456.66 44.82 457.36 L41.7 473.62 L28.02 468.54 L36.24 454.18 C35.19
									 452.36 34.83 450.14 35.62 448.02 C37.02 444.24 41.22 442.31 45 443.71 C48.78 445.11 50.71 449.31
									 49.31 453.09 ZM17.81 420.14 C14.14 424.86 11.08 430.26 8.85 436.27 C0 460.15 7.2 485.45 24.72
									 498.45 C46.48 500 68.42 485.51 77.27 461.63 C79.5 455.61 80.69 449.52 80.98 443.55 C65.79 424.79
									 41.57 415.81 17.81 420.14 Z" class="st2"/>
					</g>
				</g>
				<g id="shape14-22" transform="translate(453.633,-104.735)">
					<title>Fill-18</title>
					<path d="M5.23 494.42 C5.41 494.42 5.58 494.41 5.74 494.4 C5.91 494.39 6.05 494.35 6.17 494.28 C6.29 494.21 6.39
								 494.12 6.47 494 C6.54 493.89 6.58 493.72 6.58 493.5 C6.58 493.32 6.54 493.18 6.46 493.08 C6.38 492.98
								 6.28 492.9 6.16 492.84 C6.04 492.78 5.9 492.75 5.75 492.73 C5.6 492.72 5.45 492.71 5.31 492.71 L4.15
								 492.71 L4.15 494.42 L5.23 494.42 ZM4.15 497.74 L3.19 497.74 L3.19 491.89 L5.41 491.89 C6.12 491.89
								 6.65 492.03 7.01 492.29 C7.36 492.55 7.54 492.98 7.54 493.57 C7.54 494.1 7.4 494.49 7.1 494.73 C6.81
								 494.98 6.45 495.12 6.02 495.17 L7.66 497.74 L6.57 497.74 L5.06 495.24 L4.15 495.24 L4.15 497.74
								 ZM9.24 494.72 C9.24 494.08 9.13 493.49 8.93 492.95 C8.72 492.42 8.43 491.95 8.07 491.57 C7.7 491.18
								 7.27 490.88 6.78 490.67 C6.29 490.46 5.76 490.35 5.2 490.35 C4.62 490.35 4.09 490.46 3.6 490.67
								 C3.1 490.88 2.67 491.18 2.3 491.57 C1.93 491.95 1.65 492.42 1.44 492.95 C1.23 493.49 1.13 494.08
								 1.13 494.72 C1.13 495.32 1.22 495.89 1.41 496.41 C1.6 496.94 1.87 497.4 2.23 497.8 C2.58 498.19
								 3 498.51 3.5 498.74 C4 498.97 4.57 499.08 5.2 499.08 C5.76 499.08 6.29 498.98 6.78 498.76 C7.27
								 498.55 7.7 498.25 8.07 497.87 C8.43 497.48 8.72 497.02 8.93 496.49 C9.13 495.96 9.24 495.37 9.24
								 494.72 ZM10.37 494.72 C10.37 495.51 10.23 496.23 9.95 496.88 C9.67 497.53 9.3 498.08 8.82 498.55
								 C8.34 499.01 7.79 499.36 7.17 499.62 C6.54 499.87 5.88 500 5.2 500 C4.43 500 3.74 499.87 3.1 499.6
								 C2.47 499.33 1.92 498.96 1.46 498.49 C1.01 498.02 0.65 497.46 0.39 496.82 C0.13 496.17 0 495.47
								 0 494.72 C0 493.93 0.14 493.21 0.42 492.56 C0.69 491.91 1.07 491.35 1.55 490.89 C2.02 490.43 2.58
								 490.07 3.21 489.82 C3.84 489.56 4.5 489.44 5.2 489.44 C5.88 489.44 6.54 489.56 7.17 489.82 C7.79
								 490.07 8.34 490.43 8.82 490.89 C9.3 491.35 9.67 491.91 9.95 492.56 C10.23 493.21 10.37 493.93 10.37
								 494.72 Z" class="st2"/>
				</g>
			</g>
		</g>
	</g>
</svg>
